<svg version="1.1" id="Layer_1" xmlns="http://www.w3.org/2000/svg" xmlns:xlink="http://www.w3.org/1999/xlink" x="0px" y="0px"
	 width="100%" viewBox="0 0 180 180" enable-background="new 0 0 180 180" xml:space="preserve">
<path fill="#FEFFFF" opacity="1.000000" stroke="none" 
	d="
M103.000000,181.000000 
	C68.666672,181.000000 34.833336,181.000000 1.000005,181.000000 
	C1.000003,121.000008 1.000003,61.000011 1.000002,1.000013 
	C60.999989,1.000008 120.999977,1.000008 180.999969,1.000004 
	C180.999985,60.999985 180.999985,120.999969 181.000000,180.999969 
	C155.166672,181.000000 129.333328,181.000000 103.000000,181.000000 
M86.205116,81.933502 
	C78.825180,83.552635 73.221870,87.270592 70.303986,95.315254 
	C68.932182,106.371056 67.560379,117.426857 66.153976,128.761505 
	C72.567505,126.548073 75.883957,123.672142 78.457947,118.553772 
	C79.051872,116.858513 79.876999,115.205696 80.197395,113.460236 
	C81.259064,107.676376 82.138847,101.859123 83.832993,95.923477 
	C87.217987,95.198547 90.602974,94.473625 94.610527,94.101906 
	C98.756302,95.992767 100.358253,99.257721 100.085716,103.730751 
	C99.904564,106.703743 99.770477,109.733818 100.135620,112.673714 
	C100.747993,117.604095 101.606880,122.573761 106.996193,125.804367 
	C109.694679,127.561691 112.393173,129.319016 115.488953,131.335052 
	C114.497780,125.425041 113.407310,120.780479 113.016960,116.077789 
	C112.619278,111.286896 113.011452,106.436020 112.877060,101.616440 
	C112.656204,93.696518 108.316460,87.103317 101.946114,84.296700 
	C99.930328,83.215050 97.914536,82.133400 95.043991,81.046738 
	C92.357574,81.333481 89.671165,81.620224 86.205116,81.933502 
M73.296471,62.617661 
	C74.628265,69.232361 75.960052,75.847061 77.552788,83.757782 
	C78.832489,81.657074 80.531349,80.060410 80.706841,78.310944 
	C80.996407,75.424370 80.155495,72.444214 80.052048,69.494339 
	C79.826866,63.072483 76.558586,58.740601 70.707024,55.252476 
	C68.766884,54.213150 66.826752,53.173828 64.886612,52.134502 
	C71.114136,65.338730 66.493256,79.042519 68.400291,92.161125 
	C68.852501,91.976295 69.342957,91.912148 69.385483,91.738380 
	C70.298317,88.008018 71.547379,84.305977 71.945671,80.515892 
	C72.593132,74.354820 72.677483,68.134567 73.296471,62.617661 
z"/>
<path fill="#F9FBFC" opacity="1.000000" stroke="none" 
	d="
M95.898750,81.051743 
	C97.914536,82.133400 99.930328,83.215050 101.634567,84.649582 
	C101.516945,86.185135 101.413048,87.532280 101.958862,88.520615 
	C103.835167,91.918121 107.100334,94.991554 107.708870,98.552078 
	C108.897781,105.508469 108.680496,112.709137 108.950996,119.812286 
	C108.977333,120.503784 108.344856,121.220367 107.871765,121.605881 
	C103.087677,115.450081 104.158714,108.534920 104.049568,101.842239 
	C103.938660,95.041496 100.805717,91.302979 93.747147,89.634521 
	C88.933174,88.323296 85.261574,90.000931 81.683731,93.122665 
	C79.601997,97.561043 77.411095,101.734879 76.190796,106.175438 
	C75.165970,109.904694 75.272148,113.944763 74.596130,118.033318 
	C73.717758,118.628723 73.120850,119.038040 71.520638,120.135323 
	C72.099846,111.765251 72.604401,104.474060 73.382141,96.977753 
	C76.507294,91.046654 81.159256,87.376892 87.451492,85.071854 
	C91.078865,85.207199 94.267471,85.350365 97.773422,85.507782 
	C97.105316,83.919724 96.502029,82.485733 95.898750,81.051743 
z"/>
<path fill="#B5E1DD" opacity="1.000000" stroke="none" 
	d="
M108.018188,121.925308 
	C108.344856,121.220367 108.977333,120.503784 108.950996,119.812286 
	C108.680496,112.709137 108.897781,105.508469 107.708870,98.552078 
	C107.100334,94.991554 103.835167,91.918121 101.958862,88.520615 
	C101.413048,87.532280 101.516945,86.185135 101.668503,84.918808 
	C108.316460,87.103317 112.656204,93.696518 112.877060,101.616440 
	C113.011452,106.436020 112.619278,111.286896 113.016960,116.077789 
	C113.407310,120.780479 114.497780,125.425041 115.488953,131.335052 
	C112.393173,129.319016 109.694679,127.561691 107.192047,125.256546 
	C107.598000,123.780922 107.808090,122.853119 108.018188,121.925308 
z"/>
<path fill="#CFC2E9" opacity="1.000000" stroke="none" 
	d="
M73.108955,97.182869 
	C72.604401,104.474060 72.099846,111.765251 71.520638,120.135323 
	C73.120850,119.038040 73.717758,118.628723 74.797745,118.311691 
	C76.132759,118.592453 76.984718,118.780945 77.836670,118.969429 
	C75.883957,123.672142 72.567505,126.548073 66.153976,128.761505 
	C67.560379,117.426857 68.932182,106.371056 70.783417,95.369812 
	C71.878220,96.010544 72.493591,96.596703 73.108955,97.182869 
z"/>
<path fill="#CBC3E7" opacity="1.000000" stroke="none" 
	d="
M72.999512,61.939293 
	C72.677483,68.134567 72.593132,74.354820 71.945671,80.515892 
	C71.547379,84.305977 70.298317,88.008018 69.385483,91.738380 
	C69.342957,91.912148 68.852501,91.976295 68.400291,92.161125 
	C66.493256,79.042519 71.114136,65.338730 64.886612,52.134502 
	C66.826752,53.173828 68.766884,54.213150 70.867447,55.921131 
	C71.685089,58.372955 72.342300,60.156124 72.999512,61.939293 
z"/>
<path fill="#BDD9E3" opacity="1.000000" stroke="none" 
	d="
M107.871765,121.605881 
	C107.808090,122.853119 107.598000,123.780922 107.088058,124.924347 
	C101.606880,122.573761 100.747993,117.604095 100.135620,112.673714 
	C99.770477,109.733818 99.904564,106.703743 100.085716,103.730751 
	C100.358253,99.257721 98.756302,95.992767 94.302795,93.546333 
	C94.007408,91.954590 94.019753,90.918419 94.032097,89.882248 
	C100.805717,91.302979 103.938660,95.041496 104.049568,101.842239 
	C104.158714,108.534920 103.087677,115.450081 107.871765,121.605881 
z"/>
<path fill="#C5C9E5" opacity="1.000000" stroke="none" 
	d="
M73.147995,62.278477 
	C72.342300,60.156124 71.685089,58.372955 71.054337,56.200294 
	C76.558586,58.740601 79.826866,63.072483 80.052048,69.494339 
	C80.155495,72.444214 80.996407,75.424370 80.706841,78.310944 
	C80.531349,80.060410 78.832489,81.657074 77.552788,83.757782 
	C75.960052,75.847061 74.628265,69.232361 73.147995,62.278477 
z"/>
<path fill="#C8C3E5" opacity="1.000000" stroke="none" 
	d="
M78.147308,118.761597 
	C76.984718,118.780945 76.132759,118.592453 75.079193,118.125595 
	C75.272148,113.944763 75.165970,109.904694 76.190796,106.175438 
	C77.411095,101.734879 79.601997,97.561043 81.687836,93.472473 
	C82.364998,94.467094 82.726700,95.260895 83.088402,96.054688 
	C82.138847,101.859123 81.259064,107.676376 80.197395,113.460236 
	C79.876999,115.205696 79.051872,116.858513 78.147308,118.761597 
z"/>
<path fill="#C3C4E5" opacity="1.000000" stroke="none" 
	d="
M73.382141,96.977753 
	C72.493591,96.596703 71.878220,96.010544 71.087372,95.151733 
	C73.221870,87.270592 78.825180,83.552635 86.600647,82.317322 
	C87.001694,83.493996 87.007210,84.286835 87.012726,85.079681 
	C81.159256,87.376892 76.507294,91.046654 73.382141,96.977753 
z"/>
<path fill="#C0CCE4" opacity="1.000000" stroke="none" 
	d="
M83.460693,95.989082 
	C82.726700,95.260895 82.364998,94.467094 81.999191,93.323486 
	C85.261574,90.000931 88.933174,88.323296 93.747147,89.634521 
	C94.019753,90.918419 94.007408,91.954590 93.991516,93.369728 
	C90.602974,94.473625 87.217987,95.198547 83.460693,95.989082 
z"/>
<path fill="#BED4E4" opacity="1.000000" stroke="none" 
	d="
M87.451492,85.071854 
	C87.007210,84.286835 87.001694,83.493996 86.990463,82.304062 
	C89.671165,81.620224 92.357574,81.333481 95.471375,81.049240 
	C96.502029,82.485733 97.105316,83.919724 97.773422,85.507782 
	C94.267471,85.350365 91.078865,85.207199 87.451492,85.071854 
z"/>
</svg>